# xmcd CD database file generated by MAGIX-FreeDB-MP3_deluxe_17 v3.0beta1
#
# Track frame offsets:
#	150
#	9517
#	22948
#	34467
#	43366
#	54406
#	64679
#	75575
#	87320
#	97804
#	106194
#	118341
#	130261
#	141853
#	156339
#	166292
#	176703
#	188943
#	200689
#	212895
#
# Disc length: 2977
#
# Revision: 25
# Processed by: cddbd v1.5.2PL0 Copyright (c) Steve Scherf et al.
# Submitted via: MAGIX-FreeDB-MP3_deluxe_17 v3.0beta1
#
DISCID=1b0b9f14
DTITLE=Various Artist - Mega Jukebox Hits - Hotdogs, Hits and Happy Days [CD 2)
DYEAR=1996
DGENRE=Pop
TTITLE0=Eddie Hodges - I'm Gonna Knock On Your Door
TTITLE1=The Ad Libs - The Boy From New York City
TTITLE2=Jay and The Americans - Cara Mia
TTITLE3=Dave 'Baby' Cortez - The Happy Organ
TTITLE4=Bobby Day - Little Bitty Pretty One
TTITLE5=Jimmie Rodgers - Honeycomb
TTITLE6=The Four Seasons - Big Girls Don't Cry
TTITLE7=Gene Pitney - Backstage (I'm Lonely)
TTITLE8=Del Shannon - Runaway
TTITLE9=Freddy Cannon - Palisades Park
TTITLE10=Arthur Lyman Group - Yellow Bird
TTITLE11=Fats Domino - Red Sails In The Sunset
TTITLE12=Archie Bleyer - Hernando's Hideaway
TTITLE13=Shangri-Las - I Can Never Go Home Anymore
TTITLE14=Buddy Knox - Party Doll
TTITLE15=Link Wray - Rumble
TTITLE16=Jerry Lee Lewis - Breathless
TTITLE17=Dion and The Belmonts - A Teenager In Love
TTITLE18=Jan and Dean - The Little Old Lady From Pasadena
TTITLE19=Jimmy Clanton - Venus In Blue Jeans
EXTD=
EXTT0=
EXTT1=
EXTT2=
EXTT3=
EXTT4=
EXTT5=
EXTT6=
EXTT7=
EXTT8=
EXTT9=
EXTT10=
EXTT11=
EXTT12=
EXTT13=
EXTT14=
EXTT15=
EXTT16=
EXTT17=
EXTT18=
EXTT19=
PLAYORDER=
